<?xml version="1.0" standalone="no"?>
<!DOCTYPE svg PUBLIC "-//W3C//DTD SVG 20010904//EN"
 "http://www.w3.org/TR/2001/REC-SVG-20010904/DTD/svg10.dtd">
<svg version="1.0" xmlns="http://www.w3.org/2000/svg"
 width="128.000000pt" height="128.000000pt" viewBox="0 0 128.000000 128.000000"
 preserveAspectRatio="xMidYMid meet">
<metadata>
Created by potrace 1.11, written by Peter Selinger 2001-2013
</metadata>
<g transform="translate(0.000000,128.000000) scale(0.100000,-0.100000)"
fill="#000000" stroke="none">
<path d="M480 1260 c0 -18 -7 -20 -60 -20 -53 0 -60 -2 -60 -20 0 -17 -7 -20
-40 -20 -33 0 -40 -3 -40 -20 0 -13 -7 -20 -20 -20 -13 0 -20 -7 -20 -20 0
-13 -7 -20 -20 -20 -13 0 -20 -7 -20 -20 0 -13 -7 -20 -20 -20 -13 0 -20 -7
-20 -20 0 -13 -7 -20 -20 -20 -13 0 -20 -7 -20 -20 0 -13 -7 -20 -20 -20 -17
0 -20 -7 -20 -40 0 -33 -3 -40 -20 -40 -18 0 -20 -7 -20 -60 0 -53 -2 -60 -20
-60 -19 0 -20 -7 -20 -160 0 -153 1 -160 20 -160 18 0 20 -7 20 -60 0 -53 2
-60 20 -60 17 0 20 -7 20 -40 0 -33 3 -40 20 -40 13 0 20 -7 20 -20 0 -13 7
-20 20 -20 13 0 20 -7 20 -20 0 -13 7 -20 20 -20 13 0 20 -7 20 -20 0 -13 7
-20 20 -20 13 0 20 -7 20 -20 0 -13 7 -20 20 -20 13 0 20 -7 20 -20 0 -17 7
-20 40 -20 33 0 40 -3 40 -20 0 -18 7 -20 60 -20 53 0 60 -2 60 -20 0 -19 7
-20 160 -20 153 0 160 1 160 20 0 18 7 20 60 20 53 0 60 2 60 20 0 17 7 20 40
20 33 0 40 3 40 20 0 13 7 20 20 20 13 0 20 7 20 20 0 13 7 20 20 20 13 0 20
7 20 20 0 13 7 20 20 20 13 0 20 7 20 20 0 13 7 20 20 20 13 0 20 7 20 20 0
13 7 20 20 20 17 0 20 7 20 40 0 33 3 40 20 40 18 0 20 7 20 60 0 53 2 60 20
60 19 0 20 7 20 160 0 153 -1 160 -20 160 -18 0 -20 7 -20 60 0 53 -2 60 -20
60 -17 0 -20 7 -20 40 0 33 -3 40 -20 40 -13 0 -20 7 -20 20 0 13 -7 20 -20
20 -13 0 -20 7 -20 20 0 13 -7 20 -20 20 -13 0 -20 7 -20 20 0 13 -7 20 -20
20 -13 0 -20 7 -20 20 0 13 -7 20 -20 20 -13 0 -20 7 -20 20 0 17 -7 20 -40
20 -33 0 -40 3 -40 20 0 18 -7 20 -60 20 -53 0 -60 2 -60 20 0 19 -7 20 -160
20 -153 0 -160 -1 -160 -20z m360 -180 l0 -40 40 0 40 0 0 -40 0 -40 40 0 40
0 0 -40 0 -40 40 0 40 0 0 -40 0 -40 40 0 40 0 0 -40 0 -40 40 0 40 0 0 -40 0
-40 -40 0 -40 0 0 -40 0 -40 -40 0 -40 0 0 -40 0 -40 -40 0 -40 0 0 -40 0 -40
-80 0 -80 0 0 -40 0 -40 -40 0 -40 0 0 -40 0 -40 -80 0 -80 0 0 -40 0 -40 -80
0 -80 0 0 40 0 40 -40 0 -40 0 0 40 0 40 -40 0 -40 0 0 40 0 40 -40 0 -40 0 0
40 0 40 -40 0 -40 0 0 40 0 40 -40 0 -40 0 0 40 0 40 40 0 40 0 0 40 0 40 40
0 40 0 0 40 0 40 80 0 80 0 0 40 0 40 40 0 40 0 0 40 0 40 80 0 80 0 0 40 0
40 40 0 40 0 0 40 0 40 80 0 80 0 0 -40z"/>
<path d="M627 823 c-16 -16 -16 -18 3 -38 l20 -22 -20 -18 c-19 -17 -21 -17
-39 -1 -15 14 -24 15 -40 6 -25 -13 -26 -18 -4 -42 15 -17 15 -19 -2 -38 -17
-18 -16 -21 13 -57 16 -21 42 -49 56 -62 25 -23 27 -24 43 -8 16 16 18 15 40
-5 l23 -22 21 20 20 20 -21 19 c-19 17 -21 17 -39 1 -18 -16 -21 -14 -74 46
l-56 63 20 20 20 20 57 -63 57 -64 19 21 c19 21 19 21 -32 80 -29 33 -52 63
-52 67 0 4 8 13 18 20 15 12 25 5 92 -67 72 -77 77 -81 98 -68 12 8 21 17 20
21 -2 4 -36 43 -76 87 -73 80 -73 81 -98 65 -23 -15 -26 -15 -43 0 -22 20 -23
20 -44 -1z"/>
<path d="M418 633 c-19 -18 -16 -22 89 -136 42 -45 45 -47 66 -32 19 13 23 13
42 -5 l22 -20 18 20 c17 19 17 21 0 40 -17 19 -19 19 -38 3 -19 -17 -22 -16
-96 65 -42 45 -78 82 -81 82 -3 0 -13 -8 -22 -17z"/>
</g>
</svg>
